<svg xmlns="http://www.w3.org/2000/svg" xmlns:xlink="http://www.w3.org/1999/xlink" width="261" zoomAndPan="magnify" viewBox="0 0 195.75 195.749994" height="261" preserveAspectRatio="xMidYMid meet" version="1.0"><defs><clipPath id="5ac37e64c7"><path d="M 34 48 L 193.710938 48 L 193.710938 79 L 34 79 Z M 34 48 " clip-rule="nonzero"/></clipPath></defs><path fill="#008037" d="M 18.058594 190.339844 C 15.039062 193.363281 10.148438 193.363281 7.132812 190.339844 C 4.113281 187.316406 4.113281 182.417969 7.132812 179.394531 L 7.375 179.148438 C 5.714844 182.210938 6.171875 186.121094 8.757812 188.710938 C 11.34375 191.300781 15.246094 191.761719 18.300781 190.09375 Z M 165.15625 74.5 C 162.175781 75.277344 159.007812 76.023438 155.679688 76.714844 C 157.75 89.695312 153.792969 103.449219 143.804688 113.457031 C 127.261719 130.027344 100.433594 130.027344 83.890625 113.457031 C 73.902344 103.449219 69.945312 89.695312 72.015625 76.714844 C 68.6875 76.023438 65.519531 75.277344 62.539062 74.5 C 59.945312 89.507812 63.929688 105.429688 74.496094 117.617188 L 61.496094 130.640625 C 59.285156 128.425781 55.699219 128.425781 53.488281 130.640625 L 5.546875 178.660156 C 1.914062 182.296875 1.753906 188.222656 5.324219 191.921875 C 8.972656 195.699219 14.988281 195.738281 18.679688 192.035156 L 66.730469 143.90625 C 68.945312 141.691406 68.945312 138.101562 66.730469 135.882812 L 79.273438 123.324219 C 78.019531 121.945312 76.859375 120.511719 75.78125 119.039062 C 76.1875 119.476562 76.597656 119.90625 77.023438 120.332031 C 97.359375 140.707031 130.335938 140.707031 150.671875 120.332031 C 163.121094 107.863281 167.949219 90.648438 165.15625 74.5 " fill-opacity="1" fill-rule="nonzero"/><g clip-path="url(#5ac37e64c7)"><path fill="#008037" d="M 163.636719 48.089844 C 163.84375 48.640625 164.042969 49.179688 164.230469 49.691406 C 152.304688 54.292969 134.164062 57.226562 113.847656 57.226562 C 93.527344 57.226562 75.390625 54.292969 63.464844 49.691406 C 63.652344 49.179688 63.851562 48.640625 64.058594 48.089844 C 45.746094 51.832031 34.011719 56.753906 34.011719 59.304688 C 34.011719 63.753906 69.753906 78.582031 113.847656 78.582031 C 157.9375 78.582031 193.683594 63.753906 193.683594 59.304688 C 193.683594 56.753906 181.949219 51.832031 163.636719 48.089844 " fill-opacity="1" fill-rule="nonzero"/></g><path fill="#008037" d="M 160.34375 39.515625 C 157.832031 33.132812 154.972656 26.078125 152.601562 20.292969 C 151.519531 17.644531 150.539062 15.261719 149.738281 13.328125 C 147.222656 16.324219 142.074219 17.460938 142.074219 17.460938 C 146.242188 15.648438 148.699219 13.417969 148.699219 11.011719 C 148.699219 4.929688 133.050781 0 113.746094 0 C 96.335938 0 81.902344 4.007812 79.234375 9.257812 C 78.945312 9.828125 76.601562 16.609375 75.09375 20.292969 C 74.492188 21.753906 73.863281 23.300781 73.214844 24.894531 L 73.414062 24.90625 L 82.871094 25.460938 L 73.414062 26.015625 L 72.742188 26.054688 C 70.890625 30.613281 68.925781 35.503906 67.152344 40.03125 C 78.902344 43.707031 95.085938 45.980469 112.953125 45.980469 C 131.640625 45.980469 148.480469 43.496094 160.34375 39.515625 " fill-opacity="1" fill-rule="nonzero"/><path fill="#008037" d="M 105.628906 116.152344 C 93.488281 113.101562 83.960938 103.445312 81.082031 91.214844 C 80.800781 90.007812 79.738281 89.148438 78.5 89.148438 C 76.785156 89.148438 75.53125 90.753906 75.921875 92.425781 C 79.253906 106.589844 90.285156 117.773438 104.34375 121.304688 C 106.023438 121.726562 107.652344 120.464844 107.652344 118.730469 C 107.652344 117.507812 106.816406 116.453125 105.628906 116.152344 " fill-opacity="1" fill-rule="nonzero"/></svg>