<svg xmlns="http://www.w3.org/2000/svg" xmlns:xlink="http://www.w3.org/1999/xlink" width="640" zoomAndPan="magnify" viewBox="0 0 480 82.499998" height="110" preserveAspectRatio="xMidYMid meet" version="1.0"><defs><g/><clipPath id="d0259ef853"><path d="M 7.410156 31 L 77 31 L 77 82 L 7.410156 82 Z M 7.410156 31 " clip-rule="nonzero"/></clipPath><clipPath id="f2a199aa79"><path d="M 20 20 L 87.921875 20 L 87.921875 33 L 20 33 Z M 20 20 " clip-rule="nonzero"/></clipPath></defs><g fill="#008037" fill-opacity="1"><g transform="translate(91.751602, 80.114924)"><g><path d="M 5.386719 0 L 16.160156 0 L 16.160156 -21.546875 L 48.480469 -21.546875 L 48.480469 0 L 59.253906 0 L 59.253906 -64.640625 L 48.480469 -64.640625 L 48.480469 -32.320312 L 16.160156 -32.320312 L 16.160156 -64.640625 L 5.386719 -64.640625 Z M 16.160156 -64.640625 L 48.480469 -64.640625 L 48.480469 -75.414062 L 16.160156 -75.414062 Z M 16.160156 -64.640625 "/></g></g></g><g fill="#008037" fill-opacity="1"><g transform="translate(156.391817, 80.114924)"><g><path d="M 16.160156 -43.09375 L 5.386719 -43.09375 L 5.386719 -32.320312 L 16.160156 -32.320312 Z M 5.386719 0 L 37.707031 0 L 37.707031 -10.773438 L 5.386719 -10.773438 Z M 16.160156 -21.546875 L 37.707031 -21.546875 L 37.707031 -32.320312 L 16.160156 -32.320312 Z M 16.160156 -43.09375 L 48.480469 -43.09375 L 48.480469 -53.867188 L 16.160156 -53.867188 Z M 37.707031 -10.773438 L 48.480469 -10.773438 L 48.480469 -21.546875 L 37.707031 -21.546875 Z M 37.707031 -10.773438 "/></g></g></g><g fill="#008037" fill-opacity="1"><g transform="translate(210.258661, 80.114924)"><g><path d="M 5.386719 0 L 16.160156 0 L 16.160156 -21.546875 L 37.707031 -21.546875 L 37.707031 -32.320312 L 16.160156 -32.320312 L 16.160156 -75.414062 L 5.386719 -75.414062 Z M 37.707031 -10.773438 L 48.480469 -10.773438 L 48.480469 -21.546875 L 37.707031 -21.546875 Z M 37.707031 -32.320312 L 48.480469 -32.320312 L 48.480469 -43.09375 L 37.707031 -43.09375 Z M 48.480469 0 L 59.253906 0 L 59.253906 -10.773438 L 48.480469 -10.773438 Z M 48.480469 -43.09375 L 59.253906 -43.09375 L 59.253906 -53.867188 L 48.480469 -53.867188 Z M 48.480469 -43.09375 "/></g></g></g><g fill="#008037" fill-opacity="1"><g transform="translate(274.898876, 80.114924)"><g><path d="M 37.707031 0 L 48.480469 0 L 48.480469 -21.546875 L 59.253906 -21.546875 L 59.253906 -32.320312 L 48.480469 -32.320312 L 48.480469 -75.414062 L 37.707031 -75.414062 L 37.707031 -64.640625 L 26.933594 -64.640625 L 26.933594 -53.867188 L 37.707031 -53.867188 L 37.707031 -32.320312 L 16.160156 -32.320312 L 16.160156 -43.09375 L 5.386719 -43.09375 L 5.386719 -21.546875 L 37.707031 -21.546875 Z M 16.160156 -43.09375 L 26.933594 -43.09375 L 26.933594 -53.867188 L 16.160156 -53.867188 Z M 16.160156 -43.09375 "/></g></g></g><g fill="#008037" fill-opacity="1"><g transform="translate(339.539103, 80.114924)"><g><path d="M 5.386719 0 L 16.160156 0 L 16.160156 -10.773438 L 5.386719 -10.773438 Z M 5.386719 0 "/></g></g></g><g fill="#008037" fill-opacity="1"><g transform="translate(361.085845, 80.114924)"><g><path d="M 16.160156 -43.09375 L 5.386719 -43.09375 L 5.386719 -10.773438 L 16.160156 -10.773438 Z M 16.160156 0 L 48.480469 0 L 48.480469 -10.773438 L 16.160156 -10.773438 Z M 16.160156 -43.09375 L 48.480469 -43.09375 L 48.480469 -53.867188 L 16.160156 -53.867188 Z M 16.160156 -43.09375 "/></g></g></g><g fill="#008037" fill-opacity="1"><g transform="translate(414.952689, 80.114924)"><g><path d="M 16.160156 -43.09375 L 5.386719 -43.09375 L 5.386719 -10.773438 L 16.160156 -10.773438 Z M 16.160156 0 L 48.480469 0 L 48.480469 -10.773438 L 16.160156 -10.773438 Z M 16.160156 -43.09375 L 48.480469 -43.09375 L 48.480469 -53.867188 L 16.160156 -53.867188 Z M 16.160156 -43.09375 "/></g></g></g><g clip-path="url(#d0259ef853)"><path fill="#008037" d="M 14.261719 79.738281 C 12.996094 81.003906 10.945312 81.003906 9.679688 79.738281 C 8.414062 78.46875 8.414062 76.417969 9.679688 75.152344 L 9.78125 75.046875 C 9.085938 76.332031 9.277344 77.96875 10.359375 79.054688 C 11.445312 80.136719 13.082031 80.332031 14.363281 79.632812 Z M 75.949219 31.207031 C 74.699219 31.535156 73.371094 31.847656 71.972656 32.136719 C 72.84375 37.574219 71.183594 43.335938 66.996094 47.527344 C 60.058594 54.46875 48.808594 54.46875 41.867188 47.527344 C 37.679688 43.335938 36.023438 37.574219 36.890625 32.136719 C 35.492188 31.847656 34.164062 31.535156 32.914062 31.207031 C 31.828125 37.496094 33.5 44.167969 37.929688 49.269531 L 32.476562 54.726562 C 31.550781 53.800781 30.046875 53.800781 29.121094 54.726562 L 9.015625 74.84375 C 7.492188 76.367188 7.425781 78.851562 8.921875 80.398438 C 10.449219 81.980469 12.972656 81.996094 14.523438 80.445312 L 34.671875 60.285156 C 35.601562 59.355469 35.601562 57.851562 34.671875 56.925781 L 39.933594 51.664062 C 39.40625 51.085938 38.917969 50.484375 38.46875 49.867188 C 38.636719 50.050781 38.8125 50.230469 38.988281 50.410156 C 47.519531 58.945312 61.347656 58.945312 69.875 50.410156 C 75.097656 45.183594 77.121094 37.972656 75.949219 31.207031 " fill-opacity="1" fill-rule="nonzero"/></g><g clip-path="url(#f2a199aa79)"><path fill="#008037" d="M 75.3125 20.144531 C 75.398438 20.375 75.480469 20.601562 75.5625 20.816406 C 70.558594 22.742188 62.953125 23.972656 54.429688 23.972656 C 45.910156 23.972656 38.304688 22.742188 33.304688 20.816406 C 33.382812 20.601562 33.464844 20.375 33.550781 20.144531 C 25.875 21.710938 20.953125 23.777344 20.953125 24.84375 C 20.953125 26.707031 35.941406 32.917969 54.429688 32.917969 C 72.921875 32.917969 87.910156 26.707031 87.910156 24.84375 C 87.910156 23.777344 82.992188 21.710938 75.3125 20.144531 " fill-opacity="1" fill-rule="nonzero"/></g><path fill="#008037" d="M 73.929688 16.554688 C 72.878906 13.878906 71.679688 10.925781 70.683594 8.5 C 70.230469 7.390625 69.820312 6.394531 69.484375 5.585938 C 68.429688 6.839844 66.269531 7.316406 66.269531 7.316406 C 68.015625 6.554688 69.046875 5.621094 69.046875 4.613281 C 69.046875 2.066406 62.484375 0 54.390625 0 C 47.089844 0 41.035156 1.679688 39.917969 3.878906 C 39.796875 4.117188 38.8125 6.957031 38.179688 8.5 C 37.929688 9.113281 37.664062 9.761719 37.390625 10.429688 L 37.476562 10.433594 L 41.441406 10.664062 L 37.476562 10.898438 L 37.195312 10.914062 C 36.417969 12.824219 35.59375 14.875 34.847656 16.769531 C 39.777344 18.308594 46.5625 19.261719 54.058594 19.261719 C 61.894531 19.261719 68.957031 18.21875 73.929688 16.554688 " fill-opacity="1" fill-rule="nonzero"/><path fill="#008037" d="M 50.984375 48.660156 C 45.894531 47.378906 41.898438 43.335938 40.691406 38.210938 C 40.574219 37.707031 40.128906 37.347656 39.609375 37.347656 C 38.890625 37.347656 38.363281 38.019531 38.527344 38.71875 C 39.925781 44.652344 44.550781 49.335938 50.445312 50.816406 C 51.152344 50.992188 51.832031 50.464844 51.832031 49.738281 C 51.832031 49.226562 51.484375 48.785156 50.984375 48.660156 " fill-opacity="1" fill-rule="nonzero"/></svg>